<?xml version="1.0" encoding="UTF-8" standalone="no"?>
<!DOCTYPE svg PUBLIC "-//W3C//DTD SVG 1.1//EN"
 "http://www.w3.org/Graphics/SVG/1.1/DTD/svg11.dtd">
<!-- Generated by graphviz version 2.47.3 (20210619.1520)
 -->
<!-- Title: dependencies Pages: 1 -->
<svg width="1533pt" height="247pt"
 viewBox="0.00 0.00 1533.00 246.80" xmlns="http://www.w3.org/2000/svg" xmlns:xlink="http://www.w3.org/1999/xlink">
<g id="graph0" class="graph" transform="scale(1 1) rotate(0) translate(4 242.8)">
<title>dependencies</title>
<polygon fill="white" stroke="transparent" points="-4,4 -4,-242.8 1529,-242.8 1529,4 -4,4"/>
<text text-anchor="middle" x="762.5" y="-8.2" font-family="sans-serif" font-size="14.00">dependencies</text>
<g id="clust1" class="cluster">
<title>cluster_AppModule</title>
<polygon fill="none" stroke="black" stroke-dasharray="1,5" points="8,-32.8 8,-230.8 1517,-230.8 1517,-32.8 8,-32.8"/>
</g>
<g id="clust3" class="cluster">
<title>cluster_AppModule_imports</title>
<polygon fill="none" stroke="black" points="1337,-40.8 1337,-92.8 1509,-92.8 1509,-40.8 1337,-40.8"/>
</g>
<g id="clust6" class="cluster">
<title>cluster_AppModule_providers</title>
<polygon fill="none" stroke="black" points="16,-40.8 16,-92.8 1329,-92.8 1329,-40.8 16,-40.8"/>
</g>
<g id="clust4" class="cluster">
<title>cluster_AppModule_exports</title>
<polygon fill="none" stroke="black" points="748,-170.8 748,-222.8 848,-222.8 848,-170.8 748,-170.8"/>
</g>
<!-- SingletonServiceModule -->
<g id="node1" class="node">
<title>SingletonServiceModule</title>
<polygon fill="#8dd3c7" stroke="black" points="1500.7,-84.8 1497.7,-88.8 1476.7,-88.8 1473.7,-84.8 1345.3,-84.8 1345.3,-48.8 1500.7,-48.8 1500.7,-84.8"/>
<text text-anchor="middle" x="1423" y="-62.6" font-family="Times,serif" font-size="14.00">SingletonServiceModule</text>
</g>
<!-- AppModule -->
<g id="node2" class="node">
<title>AppModule</title>
<polygon fill="#8dd3c7" stroke="black" points="839.66,-149.8 836.66,-153.8 815.66,-153.8 812.66,-149.8 756.34,-149.8 756.34,-113.8 839.66,-113.8 839.66,-149.8"/>
<text text-anchor="middle" x="798" y="-127.6" font-family="Times,serif" font-size="14.00">AppModule</text>
</g>
<!-- SingletonServiceModule&#45;&gt;AppModule -->
<g id="edge1" class="edge">
<title>SingletonServiceModule&#45;&gt;AppModule</title>
<path fill="none" stroke="black" d="M1423,-84.81C1423,-107.29 1423,-142.8 1423,-142.8 1423,-142.8 849.98,-142.8 849.98,-142.8"/>
<polygon fill="black" stroke="black" points="849.98,-139.3 839.98,-142.8 849.98,-146.3 849.98,-139.3"/>
</g>
<!-- VMService  -->
<g id="node3" class="node">
<title>VMService </title>
<polygon fill="#fb8072" stroke="black" points="840.03,-214.8 755.97,-214.8 755.97,-178.8 840.03,-178.8 840.03,-214.8"/>
<text text-anchor="middle" x="798" y="-192.6" font-family="Times,serif" font-size="14.00">VMService </text>
</g>
<!-- AppModule&#45;&gt;VMService  -->
<g id="edge2" class="edge">
<title>AppModule&#45;&gt;VMService </title>
<path fill="none" stroke="black" stroke-dasharray="5,2" d="M798,-149.91C798,-149.91 798,-168.79 798,-168.79"/>
<polygon fill="black" stroke="black" points="794.5,-168.79 798,-178.79 801.5,-168.79 794.5,-168.79"/>
</g>
<!-- AppService -->
<g id="node4" class="node">
<title>AppService</title>
<ellipse fill="#fdb462" stroke="black" cx="1264" cy="-66.8" rx="56.74" ry="18"/>
<text text-anchor="middle" x="1264" y="-62.6" font-family="Times,serif" font-size="14.00">AppService</text>
</g>
<!-- AppService&#45;&gt;AppModule -->
<g id="edge3" class="edge">
<title>AppService&#45;&gt;AppModule</title>
<path fill="none" stroke="black" d="M1264,-84.93C1264,-105.37 1264,-135.8 1264,-135.8 1264,-135.8 849.76,-135.8 849.76,-135.8"/>
<polygon fill="black" stroke="black" points="849.76,-132.3 839.76,-135.8 849.76,-139.3 849.76,-132.3"/>
</g>
<!-- AuditService -->
<g id="node5" class="node">
<title>AuditService</title>
<ellipse fill="#fdb462" stroke="black" cx="1127" cy="-66.8" rx="61.98" ry="18"/>
<text text-anchor="middle" x="1127" y="-62.6" font-family="Times,serif" font-size="14.00">AuditService</text>
</g>
<!-- AuditService&#45;&gt;AppModule -->
<g id="edge4" class="edge">
<title>AuditService&#45;&gt;AppModule</title>
<path fill="none" stroke="black" d="M1127,-85.07C1127,-103.36 1127,-128.8 1127,-128.8 1127,-128.8 849.67,-128.8 849.67,-128.8"/>
<polygon fill="black" stroke="black" points="849.67,-125.3 839.67,-128.8 849.67,-132.3 849.67,-125.3"/>
</g>
<!-- EjsService -->
<g id="node6" class="node">
<title>EjsService</title>
<ellipse fill="#fdb462" stroke="black" cx="995" cy="-66.8" rx="52.16" ry="18"/>
<text text-anchor="middle" x="995" y="-62.6" font-family="Times,serif" font-size="14.00">EjsService</text>
</g>
<!-- EjsService&#45;&gt;AppModule -->
<g id="edge5" class="edge">
<title>EjsService&#45;&gt;AppModule</title>
<path fill="none" stroke="black" d="M995,-84.81C995,-100.85 995,-121.8 995,-121.8 995,-121.8 849.78,-121.8 849.78,-121.8"/>
<polygon fill="black" stroke="black" points="849.78,-118.3 839.78,-121.8 849.78,-125.3 849.78,-118.3"/>
</g>
<!-- JinjaService -->
<g id="node7" class="node">
<title>JinjaService</title>
<ellipse fill="#fdb462" stroke="black" cx="866" cy="-66.8" rx="58.46" ry="18"/>
<text text-anchor="middle" x="866" y="-62.6" font-family="Times,serif" font-size="14.00">JinjaService</text>
</g>
<!-- JinjaService&#45;&gt;AppModule -->
<g id="edge6" class="edge">
<title>JinjaService&#45;&gt;AppModule</title>
<path fill="none" stroke="black" d="M823.8,-79.33C823.8,-79.33 823.8,-103.65 823.8,-103.65"/>
<polygon fill="black" stroke="black" points="820.3,-103.65 823.8,-113.65 827.3,-103.65 820.3,-103.65"/>
</g>
<!-- JsTLService -->
<g id="node8" class="node">
<title>JsTLService</title>
<ellipse fill="#fdb462" stroke="black" cx="730" cy="-66.8" rx="59.1" ry="18"/>
<text text-anchor="middle" x="730" y="-62.6" font-family="Times,serif" font-size="14.00">JsTLService</text>
</g>
<!-- JsTLService&#45;&gt;AppModule -->
<g id="edge7" class="edge">
<title>JsTLService&#45;&gt;AppModule</title>
<path fill="none" stroke="black" d="M772.74,-79.33C772.74,-79.33 772.74,-103.65 772.74,-103.65"/>
<polygon fill="black" stroke="black" points="769.24,-103.65 772.74,-113.65 776.24,-103.65 769.24,-103.65"/>
</g>
<!-- PrismaService -->
<g id="node9" class="node">
<title>PrismaService</title>
<ellipse fill="#fdb462" stroke="black" cx="586" cy="-66.8" rx="66.63" ry="18"/>
<text text-anchor="middle" x="586" y="-62.6" font-family="Times,serif" font-size="14.00">PrismaService</text>
</g>
<!-- PrismaService&#45;&gt;AppModule -->
<g id="edge8" class="edge">
<title>PrismaService&#45;&gt;AppModule</title>
<path fill="none" stroke="black" d="M586,-84.81C586,-100.85 586,-121.8 586,-121.8 586,-121.8 746.12,-121.8 746.12,-121.8"/>
<polygon fill="black" stroke="black" points="746.12,-125.3 756.12,-121.8 746.12,-118.3 746.12,-125.3"/>
</g>
<!-- TemplateService -->
<g id="node10" class="node">
<title>TemplateService</title>
<ellipse fill="#fdb462" stroke="black" cx="425" cy="-66.8" rx="76.42" ry="18"/>
<text text-anchor="middle" x="425" y="-62.6" font-family="Times,serif" font-size="14.00">TemplateService</text>
</g>
<!-- TemplateService&#45;&gt;AppModule -->
<g id="edge9" class="edge">
<title>TemplateService&#45;&gt;AppModule</title>
<path fill="none" stroke="black" d="M425,-85.07C425,-103.36 425,-128.8 425,-128.8 425,-128.8 746.3,-128.8 746.3,-128.8"/>
<polygon fill="black" stroke="black" points="746.3,-132.3 756.3,-128.8 746.3,-125.3 746.3,-132.3"/>
</g>
<!-- TransformerService -->
<g id="node11" class="node">
<title>TransformerService</title>
<ellipse fill="#fdb462" stroke="black" cx="242" cy="-66.8" rx="88.5" ry="18"/>
<text text-anchor="middle" x="242" y="-62.6" font-family="Times,serif" font-size="14.00">TransformerService</text>
</g>
<!-- TransformerService&#45;&gt;AppModule -->
<g id="edge10" class="edge">
<title>TransformerService&#45;&gt;AppModule</title>
<path fill="none" stroke="black" d="M242,-84.93C242,-105.37 242,-135.8 242,-135.8 242,-135.8 746.21,-135.8 746.21,-135.8"/>
<polygon fill="black" stroke="black" points="746.21,-139.3 756.21,-135.8 746.21,-132.3 746.21,-139.3"/>
</g>
<!-- VMService -->
<g id="node12" class="node">
<title>VMService</title>
<ellipse fill="#fdb462" stroke="black" cx="80" cy="-66.8" rx="55.59" ry="18"/>
<text text-anchor="middle" x="80" y="-62.6" font-family="Times,serif" font-size="14.00">VMService</text>
</g>
<!-- VMService&#45;&gt;AppModule -->
<g id="edge11" class="edge">
<title>VMService&#45;&gt;AppModule</title>
<path fill="none" stroke="black" d="M80,-84.81C80,-107.29 80,-142.8 80,-142.8 80,-142.8 746.29,-142.8 746.29,-142.8"/>
<polygon fill="black" stroke="black" points="746.29,-146.3 756.29,-142.8 746.29,-139.3 746.29,-146.3"/>
</g>
</g>
</svg>
