<?xml version="1.0" encoding="UTF-8" standalone="no"?>
<!DOCTYPE svg PUBLIC "-//W3C//DTD SVG 1.1//EN"
 "http://www.w3.org/Graphics/SVG/1.1/DTD/svg11.dtd">
<!-- Generated by graphviz version 2.47.3 (20210619.1520)
 -->
<!-- Title: dependencies Pages: 1 -->
<svg width="770pt" height="174pt"
 viewBox="0.00 0.00 770.00 173.80" xmlns="http://www.w3.org/2000/svg" xmlns:xlink="http://www.w3.org/1999/xlink">
<g id="graph0" class="graph" transform="scale(1 1) rotate(0) translate(4 169.8)">
<title>dependencies</title>
<polygon fill="white" stroke="transparent" points="-4,4 -4,-169.8 766,-169.8 766,4 -4,4"/>
<text text-anchor="middle" x="381" y="-8.2" font-family="sans-serif" font-size="14.00">dependencies</text>
<g id="clust1" class="cluster">
<title>cluster_AppModule</title>
<polygon fill="none" stroke="black" stroke-dasharray="1,5" points="8,-32.8 8,-157.8 754,-157.8 754,-32.8 8,-32.8"/>
</g>
<g id="clust6" class="cluster">
<title>cluster_AppModule_providers</title>
<polygon fill="none" stroke="black" points="16,-40.8 16,-92.8 746,-92.8 746,-40.8 16,-40.8"/>
</g>
<!-- AppService -->
<g id="node1" class="node">
<title>AppService</title>
<ellipse fill="#fdb462" stroke="black" cx="681" cy="-66.8" rx="56.74" ry="18"/>
<text text-anchor="middle" x="681" y="-62.6" font-family="Times,serif" font-size="14.00">AppService</text>
</g>
<!-- AppModule -->
<g id="node6" class="node">
<title>AppModule</title>
<polygon fill="#8dd3c7" stroke="black" points="446.66,-149.8 443.66,-153.8 422.66,-153.8 419.66,-149.8 363.34,-149.8 363.34,-113.8 446.66,-113.8 446.66,-149.8"/>
<text text-anchor="middle" x="405" y="-127.6" font-family="Times,serif" font-size="14.00">AppModule</text>
</g>
<!-- AppService&#45;&gt;AppModule -->
<g id="edge1" class="edge">
<title>AppService&#45;&gt;AppModule</title>
<path fill="none" stroke="black" d="M681,-85.08C681,-106.12 681,-137.8 681,-137.8 681,-137.8 456.92,-137.8 456.92,-137.8"/>
<polygon fill="black" stroke="black" points="456.92,-134.3 446.92,-137.8 456.92,-141.3 456.92,-134.3"/>
</g>
<!-- AuditService -->
<g id="node2" class="node">
<title>AuditService</title>
<ellipse fill="#fdb462" stroke="black" cx="544" cy="-66.8" rx="61.98" ry="18"/>
<text text-anchor="middle" x="544" y="-62.6" font-family="Times,serif" font-size="14.00">AuditService</text>
</g>
<!-- AuditService&#45;&gt;AppModule -->
<g id="edge2" class="edge">
<title>AuditService&#45;&gt;AppModule</title>
<path fill="none" stroke="black" d="M544,-84.82C544,-102.17 544,-125.8 544,-125.8 544,-125.8 456.7,-125.8 456.7,-125.8"/>
<polygon fill="black" stroke="black" points="456.7,-122.3 446.7,-125.8 456.7,-129.3 456.7,-122.3"/>
</g>
<!-- JsTLService -->
<g id="node3" class="node">
<title>JsTLService</title>
<ellipse fill="#fdb462" stroke="black" cx="405" cy="-66.8" rx="59.1" ry="18"/>
<text text-anchor="middle" x="405" y="-62.6" font-family="Times,serif" font-size="14.00">JsTLService</text>
</g>
<!-- JsTLService&#45;&gt;AppModule -->
<g id="edge3" class="edge">
<title>JsTLService&#45;&gt;AppModule</title>
<path fill="none" stroke="black" d="M405,-84.91C405,-84.91 405,-103.79 405,-103.79"/>
<polygon fill="black" stroke="black" points="401.5,-103.79 405,-113.79 408.5,-103.79 401.5,-103.79"/>
</g>
<!-- PrismaService -->
<g id="node4" class="node">
<title>PrismaService</title>
<ellipse fill="#fdb462" stroke="black" cx="261" cy="-66.8" rx="66.63" ry="18"/>
<text text-anchor="middle" x="261" y="-62.6" font-family="Times,serif" font-size="14.00">PrismaService</text>
</g>
<!-- PrismaService&#45;&gt;AppModule -->
<g id="edge4" class="edge">
<title>PrismaService&#45;&gt;AppModule</title>
<path fill="none" stroke="black" d="M261,-84.82C261,-102.17 261,-125.8 261,-125.8 261,-125.8 352.96,-125.8 352.96,-125.8"/>
<polygon fill="black" stroke="black" points="352.96,-129.3 362.96,-125.8 352.96,-122.3 352.96,-129.3"/>
</g>
<!-- TemplateService -->
<g id="node5" class="node">
<title>TemplateService</title>
<ellipse fill="#fdb462" stroke="black" cx="100" cy="-66.8" rx="76.42" ry="18"/>
<text text-anchor="middle" x="100" y="-62.6" font-family="Times,serif" font-size="14.00">TemplateService</text>
</g>
<!-- TemplateService&#45;&gt;AppModule -->
<g id="edge5" class="edge">
<title>TemplateService&#45;&gt;AppModule</title>
<path fill="none" stroke="black" d="M100,-85.08C100,-106.12 100,-137.8 100,-137.8 100,-137.8 353.23,-137.8 353.23,-137.8"/>
<polygon fill="black" stroke="black" points="353.23,-141.3 363.23,-137.8 353.23,-134.3 353.23,-141.3"/>
</g>
</g>
</svg>
