<?xml version="1.0" encoding="UTF-8" standalone="no"?>
<!DOCTYPE svg PUBLIC "-//W3C//DTD SVG 1.1//EN"
 "http://www.w3.org/Graphics/SVG/1.1/DTD/svg11.dtd">
<!-- Generated by graphviz version 2.47.3 (20210619.1520)
 -->
<!-- Title: dependencies Pages: 1 -->
<svg width="196pt" height="247pt"
 viewBox="0.00 0.00 196.00 246.80" xmlns="http://www.w3.org/2000/svg" xmlns:xlink="http://www.w3.org/1999/xlink">
<g id="graph0" class="graph" transform="scale(1 1) rotate(0) translate(4 242.8)">
<title>dependencies</title>
<polygon fill="white" stroke="transparent" points="-4,4 -4,-242.8 192,-242.8 192,4 -4,4"/>
<text text-anchor="middle" x="94" y="-8.2" font-family="sans-serif" font-size="14.00">dependencies</text>
<g id="clust1" class="cluster">
<title>cluster_SingletonServiceModule</title>
<polygon fill="none" stroke="black" stroke-dasharray="1,5" points="8,-32.8 8,-230.8 180,-230.8 180,-32.8 8,-32.8"/>
</g>
<g id="clust4" class="cluster">
<title>cluster_SingletonServiceModule_exports</title>
<polygon fill="none" stroke="black" points="44,-170.8 44,-222.8 144,-222.8 144,-170.8 44,-170.8"/>
</g>
<g id="clust6" class="cluster">
<title>cluster_SingletonServiceModule_providers</title>
<polygon fill="none" stroke="black" points="30,-40.8 30,-92.8 158,-92.8 158,-40.8 30,-40.8"/>
</g>
<!-- VMService  -->
<g id="node1" class="node">
<title>VMService </title>
<polygon fill="#fb8072" stroke="black" points="136.03,-214.8 51.97,-214.8 51.97,-178.8 136.03,-178.8 136.03,-214.8"/>
<text text-anchor="middle" x="94" y="-192.6" font-family="Times,serif" font-size="14.00">VMService </text>
</g>
<!-- SingletonServiceModule -->
<g id="node2" class="node">
<title>SingletonServiceModule</title>
<polygon fill="#8dd3c7" stroke="black" points="171.7,-149.8 168.7,-153.8 147.7,-153.8 144.7,-149.8 16.3,-149.8 16.3,-113.8 171.7,-113.8 171.7,-149.8"/>
<text text-anchor="middle" x="94" y="-127.6" font-family="Times,serif" font-size="14.00">SingletonServiceModule</text>
</g>
<!-- SingletonServiceModule&#45;&gt;VMService  -->
<g id="edge1" class="edge">
<title>SingletonServiceModule&#45;&gt;VMService </title>
<path fill="none" stroke="black" stroke-dasharray="5,2" d="M94,-149.91C94,-149.91 94,-168.79 94,-168.79"/>
<polygon fill="black" stroke="black" points="90.5,-168.79 94,-178.79 97.5,-168.79 90.5,-168.79"/>
</g>
<!-- VMService -->
<g id="node3" class="node">
<title>VMService</title>
<ellipse fill="#fdb462" stroke="black" cx="94" cy="-66.8" rx="55.59" ry="18"/>
<text text-anchor="middle" x="94" y="-62.6" font-family="Times,serif" font-size="14.00">VMService</text>
</g>
<!-- VMService&#45;&gt;SingletonServiceModule -->
<g id="edge2" class="edge">
<title>VMService&#45;&gt;SingletonServiceModule</title>
<path fill="none" stroke="black" d="M94,-84.91C94,-84.91 94,-103.79 94,-103.79"/>
<polygon fill="black" stroke="black" points="90.5,-103.79 94,-113.79 97.5,-103.79 90.5,-103.79"/>
</g>
</g>
</svg>
